<?xml version="1.0" encoding="UTF-8" standalone="no"?>
<svg
   version="1.1"
   class="highcharts-root"
   style="font-family:&quot;Lucida Grande&quot;, &quot;Lucida Sans Unicode&quot;, Arial, Helvetica, sans-serif;font-size:12px;"
   width="540"
   height="400"
   viewBox="0 0 540 400"
   id="svg423"
   sodipodi:docname="autoencoder-popularity-stats.svg"
   inkscape:export-filename="D:\Documents\project\thesis_text\BUAAthesis\figure\autoencoder-popularity-stats.png"
   inkscape:export-xdpi="96"
   inkscape:export-ydpi="96"
   inkscape:version="1.1.2 (b8e25be833, 2022-02-05)"
   xmlns:inkscape="http://www.inkscape.org/namespaces/inkscape"
   xmlns:sodipodi="http://sodipodi.sourceforge.net/DTD/sodipodi-0.dtd"
   xmlns="http://www.w3.org/2000/svg"
   xmlns:svg="http://www.w3.org/2000/svg">
  <sodipodi:namedview
     id="namedview425"
     pagecolor="#ffffff"
     bordercolor="#666666"
     borderopacity="1.0"
     inkscape:pageshadow="2"
     inkscape:pageopacity="0.0"
     inkscape:pagecheckerboard="0"
     showgrid="false"
     inkscape:zoom="2.02"
     inkscape:cx="131.68317"
     inkscape:cy="200.24752"
     inkscape:window-width="1920"
     inkscape:window-height="1001"
     inkscape:window-x="-9"
     inkscape:window-y="-9"
     inkscape:window-maximized="1"
     inkscape:current-layer="svg423" />
  <desc
     id="desc246">Created with Highcharts 9.3.0</desc>
  <defs
     id="defs251">
    <clipPath
       id="highcharts-408oz91-11-">
      <rect
         x="0"
         y="0"
         width="520"
         height="375"
         fill="none"
         id="rect248" />
    </clipPath>
  </defs>
  <rect
     fill="#ffffff"
     class="highcharts-background"
     x="0"
     y="0"
     width="540"
     height="400"
     rx="0"
     ry="0"
     id="rect253"
     inkscape:export-filename="D:\Documents\project\thesis_text\BUAAthesis\figure\autoencoder-popularity-stats.png"
     inkscape:export-xdpi="284.39999"
     inkscape:export-ydpi="284.39999" />
  <rect
     fill="none"
     class="highcharts-plot-background"
     x="10"
     y="10"
     width="520"
     height="375"
     id="rect255" />
  <g
     class="highcharts-pane-group"
     data-z-index="0"
     id="g257" />
  <rect
     fill="none"
     class="highcharts-plot-border"
     data-z-index="1"
     x="10"
     y="10"
     width="520"
     height="375"
     id="rect259" />
  <g
     class="highcharts-series-group"
     data-z-index="3"
     id="g287">
    <g
       class="highcharts-series highcharts-series-0 highcharts-pie-series highcharts-tracker"
       data-z-index="0.1"
       opacity="1"
       transform="translate(10,10) scale(1 1)"
       style="cursor:pointer;"
       clip-path="none"
       id="g283">
      <path
         fill="#7cb5ec"
         d="M 209.4741335031307 66.50000263415617 A 127 127 0 0 1 268.1230106259767 80.8397025339156 L 267.6614121171108 81.72679149034147 A 126 126 0 0 0 209.47433717633442 67.50000261341478 Z"
         class="highcharts-halo highcharts-color-0"
         data-z-index="-1"
         fill-opacity="0.25"
         visibility="hidden"
         id="path261" />
      <path
         fill="rgb(124,181,236)"
         d="M 209.4741335031307 66.50000263415617 A 127 127 0 0 1 268.1230106259767 80.8397025339156 L 209.5 193.5 A 0 0 0 0 0 209.5 193.5 Z"
         transform="translate(0,0)"
         stroke="#ffffff"
         stroke-width="1"
         opacity="1"
         stroke-linejoin="round"
         class="highcharts-point highcharts-color-0"
         id="path263" />
      <path
         fill="rgb(67,67,72)"
         d="M 268.2356415931632 80.89838186491512 A 127 127 0 0 1 296.2349055093833 100.73116813132572 L 209.5 193.5 A 0 0 0 0 0 209.5 193.5 Z"
         transform="translate(0,0)"
         stroke="#ffffff"
         stroke-width="1"
         opacity="1"
         stroke-linejoin="round"
         class="highcharts-point highcharts-color-1"
         id="path265" />
      <path
         fill="rgb(144,237,125)"
         d="M 296.32763095834133 100.81794940679136 A 127 127 0 0 1 317.9692706196653 127.44383199702071 L 209.5 193.5 A 0 0 0 0 0 209.5 193.5 Z"
         transform="translate(0,0)"
         stroke="#ffffff"
         stroke-width="1"
         opacity="1"
         stroke-linejoin="round"
         class="highcharts-point highcharts-color-2"
         id="path267" />
      <path
         fill="#f7a35c"
         d="M 318.0352725420281 127.55233427764341 A 127 127 0 0 1 327.90557289196636 147.57484014044982 L 209.5 193.5 A 0 0 0 0 0 209.5 193.5 Z"
         transform="translate(0,0)"
         stroke="#ffffff"
         stroke-width="1"
         opacity="1"
         stroke-linejoin="round"
         class="highcharts-point highcharts-color-3"
         id="path269" />
      <path
         fill="#8085e9"
         d="M 327.9514388413902 147.69326865618555 A 127 127 0 0 1 334.1663183035568 169.265539398694 L 209.5 193.5 A 0 0 0 0 0 209.5 193.5 Z"
         transform="translate(0,0)"
         stroke="#ffffff"
         stroke-width="1"
         opacity="1"
         stroke-linejoin="round"
         class="highcharts-point highcharts-color-4"
         id="path271" />
      <path
         fill="#f15c80"
         d="M 334.1904904269651 169.3902178134491 A 127 127 0 0 1 336.48755420328337 191.72205808076413 L 209.5 193.5 A 0 0 0 0 0 209.5 193.5 Z"
         transform="translate(0,0)"
         stroke="#ffffff"
         stroke-width="1"
         opacity="1"
         stroke-linejoin="round"
         class="highcharts-point highcharts-color-5"
         id="path273" />
      <path
         fill="#e4d354"
         d="M 336.48926865113447 191.84904650277372 A 127 127 0 0 1 335.395181594867 210.2153597387391 L 209.5 193.5 A 0 0 0 0 0 209.5 193.5 Z"
         transform="translate(0,0)"
         stroke="#ffffff"
         stroke-width="1"
         opacity="1"
         stroke-linejoin="round"
         class="highcharts-point highcharts-color-6"
         id="path275" />
      <path
         fill="#2b908f"
         d="M 335.3784032903286 210.34124654167226 A 127 127 0 0 1 332.2965801767589 225.90370190106114 L 209.5 193.5 A 0 0 0 0 0 209.5 193.5 Z"
         transform="translate(0,0)"
         stroke="#ffffff"
         stroke-width="1"
         opacity="1"
         stroke-linejoin="round"
         class="highcharts-point highcharts-color-7"
         id="path277" />
      <path
         fill="#f45b5b"
         d="M 332.26411508197344 226.0264822589222 A 127 127 0 0 1 328.7129999459979 237.2865349608244 L 209.5 193.5 A 0 0 0 0 0 209.5 193.5 Z"
         transform="translate(0,0)"
         stroke="#ffffff"
         stroke-width="1"
         opacity="1"
         stroke-linejoin="round"
         class="highcharts-point highcharts-color-8"
         id="path279" />
      <path
         fill="#91e8e1"
         d="M 328.66915381183986 237.40572604763594 A 127 127 0 1 1 209.32359954786492 66.50012250840362 L 209.5 193.5 A 0 0 0 1 0 209.5 193.5 Z"
         transform="translate(-8,6)"
         stroke="#ffffff"
         stroke-width="1"
         opacity="1"
         stroke-linejoin="round"
         class="highcharts-point highcharts-point-select highcharts-color-9"
         id="path281" />
    </g>
    <g
       class="highcharts-markers highcharts-series-0 highcharts-pie-series"
       data-z-index="0.1"
       opacity="1"
       transform="translate(10,10) scale(1 1)"
       clip-path="none"
       id="g285" />
  </g>
  <text
     x="270"
     text-anchor="middle"
     class="highcharts-title"
     data-z-index="4"
     style="color:#333333;font-size:18px;fill:#333333;"
     y="24"
     id="text289" />
  <text
     x="270"
     text-anchor="middle"
     class="highcharts-subtitle"
     data-z-index="4"
     style="color:#666666;fill:#666666;"
     y="24"
     id="text291" />
  <text
     x="10"
     text-anchor="start"
     class="highcharts-caption"
     data-z-index="4"
     style="color:#666666;fill:#666666;"
     y="397"
     id="text293" />
  <g
     class="highcharts-data-labels highcharts-series-0 highcharts-pie-series highcharts-tracker"
     data-z-index="6"
     opacity="1"
     transform="translate(10,10) scale(1 1)"
     style="cursor:pointer;"
     id="g395">
    <path
       fill="none"
       class="highcharts-data-label-connector highcharts-color-0"
       stroke="#7cb5ec"
       stroke-width="1"
       d="M 251.88864706129914 41.016922017800255 C 246.88864706129914 41.016922017800255 242.6020505829336 58.49905834696966 241.1731850901451 64.32643712335945 L 239.7443195973566 70.15381589974925"
       opacity="1"
       id="path295" />
    <path
       fill="none"
       class="highcharts-data-label-connector highcharts-color-1"
       stroke="#434348"
       stroke-width="1"
       d="M 305.31553370554104 65.43150724015788 C 300.31553370554104 65.43150724015788 289.9035616883453 80.1145191489296 286.43290434928 85.0088564518535 L 282.96224701021475 89.9031937547774"
       opacity="1"
       id="path297" />
    <path
       fill="none"
       class="highcharts-data-label-connector highcharts-color-2"
       stroke="#90ed7d"
       stroke-width="1"
       d="M 336.36544842437496 94.51609989333613 C 331.36544842437496 94.51609989333613 317.3936135731727 105.86457251703007 312.7363352894386 109.64739672492806 L 308.07905700570456 113.43022093282605"
       opacity="1"
       id="path299" />
    <path
       fill="none"
       class="highcharts-data-label-connector highcharts-color-3"
       stroke="#f7a35c"
       stroke-width="1"
       d="M 354.51162776866437 122.46659877516092 C 349.51162776866437 122.46659877516092 334.21214030086503 132.11692365498993 328.82888244615145 134.76655284973856 L 323.4456245914379 137.4161820444872"
       opacity="1"
       id="path301" />
    <path
       fill="none"
       class="highcharts-data-label-connector highcharts-color-4"
       stroke="#8085e9"
       stroke-width="1"
       d="M 364.28938269858554 146.46659877516092 C 359.28938269858554 146.46659877516092 343.099787693301 155.1320872563427 337.3328903827988 156.78825615175236 L 331.5659930722966 158.44442504716204"
       opacity="1"
       id="path303" />
    <path
       fill="none"
       class="highcharts-data-label-connector highcharts-color-5"
       stroke="#f15c80"
       stroke-width="1"
       d="M 369.80119905530535 170.46659877516092 C 364.80119905530535 170.46659877516092 347.77851257573053 179.3559920869814 341.80965591778534 179.96652480265126 L 335.84079925984014 180.57705751832114"
       opacity="1"
       id="path305" />
    <path
       fill="none"
       class="highcharts-data-label-connector highcharts-color-6"
       stroke="#e4d354"
       stroke-width="1"
       d="M 371.4970244520827 194.46659877516092 C 366.4970244520827 194.46659877516092 348.24892671764917 201.85076850956946 342.2597644132902 201.49030368181826 L 336.27060210893126 201.12983885406706"
       opacity="1"
       id="path307" />
    <path
       fill="none"
       class="highcharts-data-label-connector highcharts-color-7"
       stroke="#2b908f"
       stroke-width="1"
       d="M 369.50215787401197 218.46659877516092 C 364.50215787401197 218.46659877516092 345.8380061336002 220.5730139348095 339.9529123436606 219.40439462827095 L 334.06781855372105 218.2357753217324"
       opacity="1"
       id="path309" />
    <path
       fill="none"
       class="highcharts-data-label-connector highcharts-color-8"
       stroke="#f45b5b"
       stroke-width="1"
       d="M 363.66860327961916 242.46659877516092 C 358.66860327961916 242.46659877516092 342.0514744879441 235.34622576854343 336.32982810716953 233.5399138648653 L 330.60818172639495 231.73360196118716"
       opacity="1"
       id="path311" />
    <path
       fill="none"
       class="highcharts-data-label-connector highcharts-color-9"
       stroke="#91e8e1"
       stroke-width="1"
       d="M 75.7233745977114 283.30857837644817 C 80.7233745977114 283.30857837644817 95.48757368841962 273.0120534670464 100.40897338532237 269.5798784972459 L 105.33037308222512 266.14770352744534"
       opacity="1"
       id="path313" />
    <g
       class="highcharts-label highcharts-data-label highcharts-data-label-color-0"
       data-z-index="1"
       style="cursor:pointer;"
       transform="translate(257,31)"
       opacity="1"
       id="g321">
      <text
         x="5"
         data-z-index="1"
         y="16"
         style="color:#000000;font-size:11px;font-weight:bold;fill:#000000;"
         id="text319"><tspan
   class="highcharts-text-outline"
   fill="#FFFFFF"
   stroke="#FFFFFF"
   stroke-width="2px"
   stroke-linejoin="round"
   id="tspan317">Anomaly Detection<tspan
   x="5"
   y="16"
   id="tspan315">​</tspan></tspan>Anomaly Detection</text>
    </g>
    <g
       class="highcharts-label highcharts-data-label highcharts-data-label-color-1"
       data-z-index="1"
       style="cursor:pointer;"
       transform="translate(310,55)"
       opacity="1"
       id="g329">
      <text
         x="5"
         data-z-index="1"
         y="16"
         style="color:#000000;font-size:11px;font-weight:bold;fill:#000000;"
         id="text327"><tspan
   class="highcharts-text-outline"
   fill="#FFFFFF"
   stroke="#FFFFFF"
   stroke-width="2px"
   stroke-linejoin="round"
   id="tspan325">Time Series<tspan
   x="5"
   y="16"
   id="tspan323">​</tspan></tspan>Time Series</text>
    </g>
    <g
       class="highcharts-label highcharts-data-label highcharts-data-label-color-2"
       data-z-index="1"
       style="cursor:pointer;"
       transform="translate(341,85)"
       opacity="1"
       id="g337">
      <text
         x="5"
         data-z-index="1"
         y="16"
         style="color:#000000;font-size:11px;font-weight:bold;fill:#000000;"
         id="text335"><tspan
   class="highcharts-text-outline"
   fill="#FFFFFF"
   stroke="#FFFFFF"
   stroke-width="2px"
   stroke-linejoin="round"
   id="tspan333">Denoising<tspan
   x="5"
   y="16"
   id="tspan331">​</tspan></tspan>Denoising</text>
    </g>
    <g
       class="highcharts-label highcharts-data-label highcharts-data-label-color-3"
       data-z-index="1"
       style="cursor:pointer;"
       transform="translate(360,112)"
       opacity="1"
       id="g345">
      <text
         x="5"
         data-z-index="1"
         y="16"
         style="color:#000000;font-size:11px;font-weight:bold;fill:#000000;"
         id="text343"><tspan
   class="highcharts-text-outline"
   fill="#FFFFFF"
   stroke="#FFFFFF"
   stroke-width="2px"
   stroke-linejoin="round"
   id="tspan341">Dimensionality Reduction<tspan
   x="5"
   y="16"
   id="tspan339">​</tspan></tspan>Dimensionality Reduction</text>
    </g>
    <g
       class="highcharts-label highcharts-data-label highcharts-data-label-color-4"
       data-z-index="1"
       style="cursor:pointer;"
       transform="translate(369,136)"
       opacity="1"
       id="g353">
      <text
         x="5"
         data-z-index="1"
         y="16"
         style="color:#000000;font-size:11px;font-weight:bold;fill:#000000;"
         id="text351"><tspan
   class="highcharts-text-outline"
   fill="#FFFFFF"
   stroke="#FFFFFF"
   stroke-width="2px"
   stroke-linejoin="round"
   id="tspan349">Disentanglement<tspan
   x="5"
   y="16"
   id="tspan347">​</tspan></tspan>Disentanglement</text>
    </g>
    <g
       class="highcharts-label highcharts-data-label highcharts-data-label-color-5"
       data-z-index="1"
       style="cursor:pointer;"
       transform="translate(375,160)"
       opacity="1"
       id="g361">
      <text
         x="5"
         data-z-index="1"
         y="16"
         style="color:#000000;font-size:11px;font-weight:bold;fill:#000000;"
         id="text359"><tspan
   class="highcharts-text-outline"
   fill="#FFFFFF"
   stroke="#FFFFFF"
   stroke-width="2px"
   stroke-linejoin="round"
   id="tspan357">Self-Supervised Learning<tspan
   x="5"
   y="16"
   id="tspan355">​</tspan></tspan>Self-Supervised Learning</text>
    </g>
    <g
       class="highcharts-label highcharts-data-label highcharts-data-label-color-6"
       data-z-index="1"
       style="cursor:pointer;"
       transform="translate(376,184)"
       opacity="1"
       id="g369">
      <text
         x="5"
         data-z-index="1"
         y="16"
         style="color:#000000;font-size:11px;font-weight:bold;fill:#000000;"
         id="text367"><tspan
   class="highcharts-text-outline"
   fill="#FFFFFF"
   stroke="#FFFFFF"
   stroke-width="2px"
   stroke-linejoin="round"
   id="tspan365">Image Generation<tspan
   x="5"
   y="16"
   id="tspan363">​</tspan></tspan>Image Generation</text>
    </g>
    <g
       class="highcharts-label highcharts-data-label highcharts-data-label-color-7"
       data-z-index="1"
       style="cursor:pointer;"
       transform="translate(375,208)"
       opacity="1"
       id="g377">
      <text
         x="5"
         data-z-index="1"
         y="16"
         style="color:#000000;font-size:11px;font-weight:bold;fill:#000000;"
         id="text375"><tspan
   class="highcharts-text-outline"
   fill="#FFFFFF"
   stroke="#FFFFFF"
   stroke-width="2px"
   stroke-linejoin="round"
   id="tspan373">Image Classification<tspan
   x="5"
   y="16"
   id="tspan371">​</tspan></tspan>Image Classification</text>
    </g>
    <g
       class="highcharts-label highcharts-data-label highcharts-data-label-color-8"
       data-z-index="1"
       style="cursor:pointer;"
       transform="translate(369,232)"
       opacity="1"
       id="g385">
      <text
         x="5"
         data-z-index="1"
         y="16"
         style="color:#000000;font-size:11px;font-weight:bold;fill:#000000;"
         id="text383"><tspan
   class="highcharts-text-outline"
   fill="#FFFFFF"
   stroke="#FFFFFF"
   stroke-width="2px"
   stroke-linejoin="round"
   id="tspan381">Decision Making<tspan
   x="5"
   y="16"
   id="tspan379">​</tspan></tspan>Decision Making</text>
    </g>
    <g
       class="highcharts-label highcharts-data-label highcharts-data-label-color-9"
       data-z-index="1"
       style="cursor:pointer;"
       transform="translate(29,273)"
       opacity="1"
       id="g393">
      <text
         x="5"
         data-z-index="1"
         y="16"
         style="color:#000000;font-size:11px;font-weight:bold;fill:#000000;"
         id="text391"><tspan
   class="highcharts-text-outline"
   fill="#FFFFFF"
   stroke="#FFFFFF"
   stroke-width="2px"
   stroke-linejoin="round"
   id="tspan389">Other<tspan
   x="5"
   y="16"
   id="tspan387">​</tspan></tspan>Other</text>
    </g>
  </g>
  <g
     class="highcharts-legend highcharts-no-tooltip"
     data-z-index="7"
     id="g403">
    <rect
       fill="none"
       class="highcharts-legend-box"
       rx="0"
       ry="0"
       x="0"
       y="0"
       width="8"
       height="8"
       visibility="hidden"
       id="rect397" />
    <g
       data-z-index="1"
       id="g401">
      <g
         id="g399" />
    </g>
  </g>
  <g
     class="highcharts-label highcharts-tooltip highcharts-color-0"
     style="cursor:default;white-space:nowrap;pointer-events:none;"
     data-z-index="8"
     transform="translate(257,-9999)"
     opacity="0"
     visibility="hidden"
     id="g421">
    <path
       fill="none"
       class="highcharts-label-box highcharts-tooltip-box highcharts-shadow"
       d="M 3.5 0.5 L 106.5 0.5 C 109.5 0.5 109.5 0.5 109.5 3.5 L 109.5 45.5 C 109.5 48.5 109.5 48.5 106.5 48.5 L 3.5 48.5 C 0.5 48.5 0.5 48.5 0.5 45.5 L 0.5 3.5 C 0.5 0.5 0.5 0.5 3.5 0.5"
       stroke="#000000"
       stroke-opacity="0.049999999999999996"
       stroke-width="5"
       transform="translate(1, 1)"
       id="path405" />
    <path
       fill="none"
       class="highcharts-label-box highcharts-tooltip-box highcharts-shadow"
       d="M 3.5 0.5 L 106.5 0.5 C 109.5 0.5 109.5 0.5 109.5 3.5 L 109.5 45.5 C 109.5 48.5 109.5 48.5 106.5 48.5 L 3.5 48.5 C 0.5 48.5 0.5 48.5 0.5 45.5 L 0.5 3.5 C 0.5 0.5 0.5 0.5 3.5 0.5"
       stroke="#000000"
       stroke-opacity="0.09999999999999999"
       stroke-width="3"
       transform="translate(1, 1)"
       id="path407" />
    <path
       fill="none"
       class="highcharts-label-box highcharts-tooltip-box highcharts-shadow"
       d="M 3.5 0.5 L 106.5 0.5 C 109.5 0.5 109.5 0.5 109.5 3.5 L 109.5 45.5 C 109.5 48.5 109.5 48.5 106.5 48.5 L 3.5 48.5 C 0.5 48.5 0.5 48.5 0.5 45.5 L 0.5 3.5 C 0.5 0.5 0.5 0.5 3.5 0.5"
       stroke="#000000"
       stroke-opacity="0.15"
       stroke-width="1"
       transform="translate(1, 1)"
       id="path409" />
    <path
       fill="rgba(247,247,247,0.85)"
       class="highcharts-label-box highcharts-tooltip-box"
       d="M 3.5 0.5 L 106.5 0.5 C 109.5 0.5 109.5 0.5 109.5 3.5 L 109.5 45.5 C 109.5 48.5 109.5 48.5 106.5 48.5 L 3.5 48.5 C 0.5 48.5 0.5 48.5 0.5 45.5 L 0.5 3.5 C 0.5 0.5 0.5 0.5 3.5 0.5"
       stroke="#7cb5ec"
       stroke-width="1"
       id="path411" />
    <text
       x="8"
       data-z-index="1"
       y="18"
       style="color:#333333;font-size:12px;fill:#333333;"
       id="text419"><tspan
   style="font-size: 10px"
   id="tspan413">Anomaly Detection</tspan><tspan
   class="highcharts-br"
   dy="15"
   x="8"
   id="tspan415">​</tspan>Tasks: <tspan
   style="font-weight:bold;"
   id="tspan417">7.7%</tspan></text>
  </g>
</svg>
